<?xml version="1.0" encoding="utf-8"?>
<!-- Generator: Adobe Illustrator 26.3.1, SVG Export Plug-In . SVG Version: 6.00 Build 0)  -->
<svg version="1.1" id="Layer_1" xmlns="http://www.w3.org/2000/svg" xmlns:xlink="http://www.w3.org/1999/xlink" x="0px" y="0px"
	 viewBox="0 0 1146 1065" style="enable-background:new 0 0 1146 1065;" xml:space="preserve">
<style type="text/css">
	.st0{fill:#EBB841;}
	.st1{fill:#972E22;}
	.st2{fill:#5F81BF;}
	.st3{fill:#5F82BF;}
	.st4{fill:#6687C2;}
	.st5{fill:#064573;}
	.st6{fill:#5F82C0;}
	.st7{fill:#064473;}
	.st8{fill:#EBB941;}
	.st9{fill:#EBB942;}
	.st10{fill:#6082C0;}
	.st11{fill:#074574;}
	.st12{fill:#094675;}
	.st13{fill:#094775;}
	.st14{fill:#0A4875;}
	.st15{fill:#0B4876;}
	.st16{fill:#0C4977;}
	.st17{fill:#114D79;}
	.st18{fill:#114C79;}
	.st19{fill:#0E4A77;}
	.st20{fill:#6184C0;}
	.st21{fill:#982F23;}
	.st22{fill:#983024;}
	.st23{fill:#993125;}
	.st24{fill:#993025;}
	.st25{fill:#6183C0;}
	.st26{fill:#993226;}
	.st27{fill:#993126;}
	.st28{fill:#A03F34;}
	.st29{fill:#9B362A;}
	.st30{fill:#9B3529;}
	.st31{fill:#6284C1;}
</style>
<g>
	<path class="st0" d="M574.85,598.17c-34.8,0-69.61-0.56-104.39,0.22c-19.3,0.43-41.42-14.57-41.5-40.69
		c-0.15-50.45-0.31-100.89,0.08-151.34c0.18-23.21,17.17-39.41,40.91-40.35c4.3-0.17,9.54-1.25,12.66,0.73
		c3.07,1.95,1.54,7.65,2.14,11.68c4.17,28.26,15.78,51.96,42.31,65.51c6.56,3.35,9.71,6.84,10.08,14.27
		c0.51,10.27,2.42,20.46,3.55,30.71c0.44,4.02,1.62,5.87,6.35,5.79c18.47-0.35,36.96-0.22,55.44-0.07c3.41,0.03,4.86-0.62,5.33-4.45
		c1.59-13.03,3.81-25.98,5.56-39c0.31-2.32,1.19-3.4,3.2-4.37c30.25-14.73,45.45-39.68,49.01-72.48c0.04-0.33,0.02-0.67,0.06-1
		c1.1-9.13-0.06-7.08,8.04-7.37c13.06-0.45,25.11,1.93,34.92,11.54c9.06,8.87,12.44,19.79,12.45,32.07
		c0.02,48.61,0.16,97.23-0.06,145.84c-0.1,22.44-12.75,38.31-32.81,42.22c-2.26,0.44-4.62,0.52-6.94,0.52
		C645.77,598.18,610.31,598.17,574.85,598.17z M575.01,515.26c9.46,0,18.93-0.17,28.39,0.08c3.87,0.11,4.25-1.67,4.21-4.78
		c-0.04-3.13-0.04-5.22-4.35-5.16c-18.93,0.23-37.86,0.21-56.79,0.01c-3.87-0.04-4.25,1.63-4.19,4.74c0.07,3.09-0.04,5.35,4.32,5.21
		C556.08,515.04,565.55,515.26,575.01,515.26z M575,552.21c9.47,0,18.94-0.23,28.4,0.1c4.44,0.15,4.14-2.26,4.26-5.26
		c0.13-3.2-0.47-4.72-4.25-4.68c-18.93,0.19-37.87,0.19-56.81,0c-3.77-0.04-4.39,1.46-4.25,4.67c0.13,2.97-0.23,5.43,4.24,5.27
		C556.06,551.98,565.54,552.2,575,552.21z M575.51,524.22c-9.64,0-19.29,0.16-28.93-0.08c-3.78-0.09-4.31,1.54-4.29,4.73
		c0.02,3.1,0.33,4.79,4.21,4.75c18.96-0.19,37.91-0.19,56.87,0c3.77,0.04,4.33-1.47,4.27-4.67c-0.06-3.05-0.25-4.93-4.19-4.82
		C594.14,524.4,584.82,524.22,575.51,524.22z M574.41,570.49c2.98,0,5.97-0.22,8.92,0.06c3.48,0.32,4.24-1.27,4.05-4.33
		c-0.17-2.65,0.49-5.34-3.82-5.14c-6.1,0.28-12.23,0.23-18.34,0.01c-3.24-0.12-3.68,1.31-3.83,4.11c-0.22,3.94,0.72,5.9,5.1,5.35
		C569.09,570.22,571.77,570.49,574.41,570.49z"/>
	<path class="st1" d="M939.03,365.55c7.63,5.84,15.48,11.41,22.84,17.58c12.96,10.84,24.4,23.1,33.12,37.71
		c15,25.11,14.97,50.06-0.71,74.87c-11.68,18.48-27.61,32.76-45.21,45.29c-36.03,25.64-76.1,43.03-118.01,56.19
		c-10.82,3.4-20.87-2.28-29.14-9.62c-8.8-7.81-13.24-17.89-13.26-29.63c-0.09-50.61-0.19-101.22,0.03-151.83
		c0.1-22.86,17.82-39.9,41.12-39.99c34.46-0.13,68.93-0.03,103.39-0.05c1.98,0,3.95-0.27,5.93-0.41
		C939.13,365.65,939.03,365.55,939.03,365.55z"/>
	<path class="st2" d="M360.51,481.04c-2.28-0.29-3.75-2.01-5.51-3.13c-16.5-10.48-33.99-18.27-53.86-19.21
		c-14.51-0.69-27.63,3.44-39.07,12.43c-2.47,1.94-3.5,2.06-5.58-0.73c-7.54-10.14-18.71-11.94-31.76-5.63
		c-6.62,3.2-6.58,3.17-11.01-2.6c-9.98-12.98-22.98-18.12-39.12-14.8c-9.06,1.86-17.56,5.21-24.94,10.88
		c-11.95,9.18-15.68,21.19-10.75,35.39c1.2,3.46,0.52,4.91-2.47,6.6c-6.25,3.53-11.87,7.97-16.77,13.27
		c-11.17,12.08-10.33,24.5,2.45,34.87c4.68,3.8,9.98,6.59,15.48,9.01c1.82,0.8,3.21,1.31,1.78,3.89c-5.93,10.7-9.69,21.92-6.9,34.39
		c0.27,1.23-0.08,2.06-1.34,2c-12.22-0.53-24.77,2.28-36.54-2.77c-16.74-7.18-25.21-20.37-25.3-38.36
		c-0.24-49.94-0.3-99.88,0.02-149.81c0.15-23.71,17.44-40.59,41.55-40.67c69.59-0.23,139.17-0.06,208.76-0.09
		c25.95-0.01,42.3,21.09,41.57,42.22c-0.79,22.61-0.17,45.27-0.2,67.91C361,477.71,361.4,479.39,360.51,481.04z"/>
	<path class="st2" d="M145.89,598.45c-4.08-6.94-3.05-14.12-0.73-21.23c2.45-7.5,6.34-14.33,11.14-20.53
		c2.44-3.15,2.34-4.29-1.68-5.45c-8.34-2.41-16.26-5.93-23.4-10.95c-9.72-6.83-10.17-12.68-1.84-21.09
		c5.96-6.02,13.28-9.93,20.78-13.58c2.36-1.15,4.76-2.23,7.41-3.46c-2.62-3.46-5.4-6.3-7.1-9.97c-4.41-9.49-2.34-18.5,6.14-24.72
		c8.73-6.41,18.79-9.46,29.42-9.68c9.02-0.19,14.93,5.78,19.65,12.76c3.37,4.98,5.1,10.73,6.56,16.56c2.31-0.16,3.15-2.02,4.44-3.18
		c4.72-4.26,9.67-8.17,15.6-10.63c7.39-3.06,12.31-1.37,16.4,5.54c2.24,3.79,3.31,7.95,4.01,12.24c0.29,1.77,0.19,3.64,1.51,5.38
		c2.52-3.38,4.69-6.92,7.47-9.91c16.51-17.8,36.67-20.86,58.97-13.82c13.98,4.41,26.14,12.25,37.7,21.11
		c1.95,1.49,2.5,3.21,2.5,5.56c-0.01,19.98,0.25,39.96,0.08,59.93c-0.18,20.87-17.51,38.11-38.87,38.32
		c-31.3,0.3-62.61,0.11-93.91,0.12c-25.31,0.01-50.62-0.01-75.93,0.02c-2.14,0-4.34-0.35-6.4,0.61L145.89,598.45z"/>
	<path class="st1" d="M871.84,597.84c37.39-15.75,72.52-34,103.3-59.8c11.15-9.34,20.99-19.88,28.97-32.13
		c21.07-32.38,20.41-65.81-1.98-97.37c-10.5-14.8-23.5-27.11-37.65-38.32c-1.34-1.06-3.22-1.7-3.87-4.15c4.48,0,8.74,0,13,0
		c21.3,0,42.61-0.04,63.91,0.01c25.2,0.07,42.27,17.18,42.28,42.38c0.03,49.26,0.04,98.52-0.01,147.79
		c-0.02,24.08-16.99,41.67-40.89,41.75c-55.09,0.19-110.18,0.06-165.27,0.06C873.19,598.07,872.76,597.96,871.84,597.84z"/>
	<path class="st1" d="M939.25,364.63c-12.46-8.94-18.94-21.61-21.77-36.21c-0.83-4.3-2.32-5.56-6.4-5.14
		c-3.29,0.34-6.65,0.07-9.98,0.07c-7.54,0-7.54,0-4.5-7.14c2.52-5.89,5.04-11.78,7.96-18.61c-11.97,5.55-23.51,8.21-35.63,7.89
		c-5.86-0.15-11.62-0.97-16.87-3.83c-6.88-3.75-9.06-10.38-5.56-17.37c4.35-8.7,12.09-11.92,21.22-12.62
		c7.12-0.54,14.13,0.55,18.7,1.59c-3.81-4.41-8.69-10.24-13.78-15.9c-28.68-31.9-41.17-69.35-35.98-111.77
		c4.39-35.86,24.96-60.11,59.2-71.45c33.28-11.03,65.56-7.43,95.2,11.7c29.19,18.83,41.37,46.7,38.41,80.75
		c-3.39,38.93-18.95,72.4-48.16,98.98c-0.58,0.53-1.5,0.7-1.86,1.65c5.51,0.65,10.58,0.01,15.61,0.64
		c11.86,1.49,17.81,8.26,17.23,19.64c-0.39,7.83-5,13.43-12.68,15.27c-7.53,1.8-14.9,0.34-22.19-1.47
		c-7.43-1.85-14.56-4.62-23.06-7.96c5.15,10.39,9.79,19.74,14.41,29.04c-1.06,1.6-2.52,0.93-3.72,0.94
		c-11.32,0.06-22.64,0.15-33.95-0.03c-3.47-0.05-4.22,0.8-3.32,4.23c3.35,12.87,10.3,23.32,20.44,31.75
		c1.91,1.59,3.93,3.05,5.9,4.57C949.24,365.61,944.2,364.22,939.25,364.63z M931.22,283.74c9.18-4.5,17.35-7,24.57-11.55
		c39.88-25.13,60.4-62.05,64.18-108.21c2.54-30.98-9.96-55.77-36.92-71.86c-27.49-16.41-56.97-18.99-86.95-7.94
		c-28.9,10.65-45.65,31.99-49.92,62.52c-3.61,25.79,1.21,50.42,12.56,73.71c12.83,26.31,33.34,45.37,58.25,60
		c3.33,1.96,4.37,3.33,2.51,7.19c-4.01,8.34-7.36,17.01-11.08,25.77c15.19,0,29.83,0,45.03,0c-3.01-6.03-5.85-11.46-8.46-17
		C942.36,290.75,940,284.97,931.22,283.74z M958.36,283.85c6.75,3.48,13.74,6.04,20.96,7.97c5.16,1.38,10.36,2.44,15.73,2
		c6.15-0.5,9.18-5,7.44-10.83c-1.13-3.79-4.18-5-7.6-5.44C982.17,275.95,970.36,279.87,958.36,283.85z M901.88,288.16
		c-11.32-4.28-21.61-7.4-32.63-6.99c-4,0.15-7.97,0.89-11.16,3.69c-1.78,1.57-3.65,3.39-3.37,5.83c0.32,2.74,3.08,3.37,5.28,3.85
		C874.22,297.62,887.68,295.32,901.88,288.16z"/>
	<path class="st0" d="M543.16,413.97c12.04,3.33,24.09,6.65,36.38,10.05c-0.52,0.9-0.65,1.5-0.99,1.68
		c-7.9,4.26-8.9,11.17-8.46,19.36c0.6,11.11-0.06,22.29,0.25,33.43c0.12,4.31-1.37,5.7-5.36,5.05c-0.16-0.03-0.33,0.01-0.5-0.01
		c-4.58-0.42-10.52,2.05-13.37-1.06c-2.52-2.75-1.84-8.49-2.42-12.93c-1.12-8.56-2.2-17.14-3.13-25.72
		c-0.25-2.29-1.18-3.46-3.3-4.36c-31.13-13.07-44.08-38.08-46.11-70.28c-0.13-2.06,0.2-3.23,2.5-3.22
		c23.29,0.06,46.57,0.11,69.86,0.19c0.25,0,0.51,0.37,1.24,0.94c-7.43,6.9-14.78,13.73-22.87,21.25c10.64,3.33,20.49,6.4,31.77,9.93
		c-12.67,5.23-24.08,9.94-35.5,14.65C543.13,413.26,543.14,413.62,543.16,413.97z"/>
	<path class="st0" d="M600.83,420.15c-10.2-2.89-19.47-5.52-30.04-8.52c13.1-5.42,24.98-10.33,38.24-15.82
		c-14.81-4.19-28.36-8.02-40.65-11.49c5.05-5.73,10.24-11.7,15.54-17.57c1.09-1.21,2.82-0.79,4.3-0.79
		c20.47-0.01,40.94,0.07,61.41-0.08c3.75-0.03,5.04,1.08,4.63,4.86c-3.26,30.27-17.01,53.51-45.05,67.04
		c-3.84,1.85-5.69,3.86-6.14,8.38c-1.12,11.23-3.17,22.37-4.59,33.57c-0.38,2.96-1.43,4.03-4.38,3.85c-3.48-0.21-7-0.24-10.48,0.01
		c-3.2,0.23-3.91-1.11-3.88-4.04c0.12-12.81,0.13-25.63,0-38.44c-0.03-2.82,1.01-4.61,3.15-6.29
		C588.73,430.22,594.4,425.43,600.83,420.15z"/>
	<path class="st3" d="M236.23,728.73c7.6-8.55,16.35-13.1,27.14-13.27c18.48-0.3,33.22,10.75,37.52,28.83
		c3.55,14.93,3,29.85-3.57,43.94c-8.28,17.77-29.49,25.89-47.8,18.89c-5.11-1.95-8.82-5.74-13.57-10.11c0,7.88,0,14.75,0,21.63
		c0,6.49-0.1,12.99,0.05,19.48c0.06,2.76-0.8,3.71-3.67,3.82c-12.3,0.47-12.3,0.57-12.3-11.73c0-35.63,0.07-71.26-0.09-106.88
		c-0.02-4.11,1.02-5.44,5.24-5.33C234.84,718.25,234.85,718.03,236.23,728.73z M235.76,763.81c0,2.66-0.19,5.34,0.03,7.98
		c1.12,13.31,8.87,22.41,20.51,24.23c11.63,1.83,22.27-3.68,26.68-14.7c5.14-12.85,5.26-26-0.1-38.89
		c-4.06-9.76-12.01-13.92-22.22-13.83c-10.36,0.09-17.73,5.02-21.69,14.68C236.28,749.84,235.37,756.74,235.76,763.81z"/>
	<path class="st4" d="M574.36,882.05c73.59,0,147.18-0.02,220.77,0.01c16.49,0.01,28.77,8.98,32.57,24.02
		c0.97,3.82,1.17,7.91,1.17,11.88c0.02,16.31,0.14,32.63-0.37,48.93c-0.55,17.62-13.86,30.4-31.48,30.98
		c-1.33,0.04-2.66,0.02-4,0.02c-146.01,0-292.02,0-438.04-0.01c-15.88,0-27.54-7.53-32.6-20.84c-1.51-3.96-1.94-8.04-1.94-12.23
		c0.01-16.48-0.06-32.96,0.02-49.44c0.1-20.16,13.34-33.3,33.62-33.31C427.51,882.03,500.94,882.05,574.36,882.05z M573.99,994.32
		c73.93,0,147.87,0.03,221.8-0.02c17.63-0.01,29.53-11.91,29.59-29.41c0.05-16.65,0.02-33.3,0-49.95c0-2.66-0.02-5.3-0.73-7.92
		c-3.77-13.91-14.85-21.84-30.75-21.84c-146.2,0-292.4,0-438.61,0c-1,0-2-0.02-3,0.01c-16.39,0.48-28.55,12.8-28.62,29.15
		c-0.07,16.98-0.04,33.97,0.01,50.95c0.01,2.31,0.17,4.68,0.71,6.91c3.42,13.94,14.2,22.1,29.28,22.1
		C427.13,994.34,500.56,994.32,573.99,994.32z"/>
	<path class="st3" d="M145.81,598.38c4.33,6.43,10.92,6.81,17.29,5.25c5.5-1.35,7.88,0.15,10.72,4.9
		c10.5,17.6,26.79,22.44,45.96,14.36c7.59-3.2,14.42-7.67,20.39-13.3c2.36-2.23,4.04-2.42,6.86-0.86
		c16.59,9.17,34.13,15.85,53.01,18.21c28.65,3.58,52.65-4,67.7-28.04c4.68-7.48,7.45-15.54,7.16-24.54
		c-0.26-7.94-3.38-14.26-10.33-18.17c-3.03-1.71-2.35-2.62-0.34-4.47c2.69-2.47,5.32-5.06,7.62-7.89
		c11.95-14.77,11.4-29.88-2.92-42.35c-6.07-5.29-8.23-10.54-6.77-18.06c6.63,4.75,13.19,9.69,18.51,16.07
		c13,15.58,12.5,34.79-1.72,50.7c-2.6,2.91-2.24,4.39-0.24,7.31c7.75,11.3,7.74,23.62,2.61,35.73
		c-11.94,28.16-34.16,41.86-64.11,43.96c-22.61,1.59-43.5-5.03-63.54-14.4c-6.53-3.06-11.04-3.19-16.77,1.43
		c-7.3,5.88-16.1,9.36-25.38,11.11c-18.31,3.45-32.62-3.42-43.62-17.78c-2.31-3.01-4.53-4.12-8.26-3.93
		c-9.31,0.49-17.47-2.1-22.93-10.34c-0.8-1.2-2.21-2.57-1.39-4.02c0.84-1.49,2.7-0.55,4.1-0.65c2.15-0.15,4.32-0.11,6.48-0.15
		C145.89,598.45,145.81,598.38,145.81,598.38z"/>
	<path class="st3" d="M314.59,763.37c0.12-15.23,3.92-28.89,16.03-39.3c13.07-11.24,38.7-12.16,52.28-1.6
		c7.34,5.7,9.94,13.88,11.46,22.58c0.31,1.76-0.56,2.43-2.21,2.4c-1.33-0.02-2.69-0.17-3.99,0.05c-5.99,0.99-9.46-0.61-11.35-7.22
		c-2.23-7.82-8.92-11.23-16.9-11.75c-9.47-0.62-17.8,1.92-22.53,10.68c-7.62,14.13-8.18,28.96-2.2,43.81
		c3.73,9.28,11.34,13.12,21.04,13.06c9.62-0.06,16.33-4.65,20.48-13.33c1.19-2.48,0.81-6.58,3.5-7.26c3.92-0.98,8.25-0.41,12.4-0.38
		c1.95,0.02,1.76,1.37,1.58,2.84c-1.89,15.64-14.22,28.04-30.15,30.26C333.87,812.41,314.42,794.77,314.59,763.37z"/>
	<path class="st3" d="M125.98,763.5c0.06-14.62,3.43-27.92,14.7-38.34c12.99-12.01,38.7-13.6,52.95-3.07
		c7.68,5.68,10.42,13.9,11.99,22.77c0.37,2.08-0.72,2.62-2.54,2.6c-3.16-0.04-6.33-0.1-9.48,0.03c-2.22,0.09-3.1-0.87-3.8-2.96
		c-3.84-11.41-9.12-15.66-19.51-16.05c-11.55-0.44-19.45,4.19-23.69,14.59c-4.93,12.12-5.57,24.62-1.35,37.07
		c3.63,10.7,10.89,15.84,21.6,15.96c10.54,0.12,17.99-5.18,22.06-15.5c0.75-1.9,0.36-5.05,2.92-5.32c4.27-0.45,8.65-0.34,12.92,0.12
		c1.65,0.18,0.64,2.22,0.41,3.43c-4.6,23.79-23.22,31.81-43.67,29.86c-20.3-1.94-34.48-18.17-35.51-39.2
		C125.89,767.49,125.98,765.49,125.98,763.5z"/>
	<path class="st3" d="M96.1,761.75c0-13.13,0.08-26.27-0.06-39.4c-0.03-3.15,0.77-4.3,4.17-4.33c11.88-0.11,11.88-0.25,11.88,11.52
		c0,23.94-0.08,47.88,0.08,71.82c0.03,3.82-0.89,5.15-4.93,5.09c-11.13-0.17-11.13,0.02-11.13-11.27
		C96.1,784.02,96.1,772.89,96.1,761.75z"/>
	<path class="st5" d="M618.86,793.57c0-3.82-0.02-7.65,0-11.47c0.02-4.28,4.19-6.9,7.35-4.07c2.06,1.84,2.68,0.84,4.12,0.08
		c4.2-2.19,8.37-2.17,12.13,0.88c1.5,1.22,2.34,1.79,4.08,0.24c3.6-3.22,7.88-3.37,12.12-1.42c4.4,2.02,5.34,6.02,5.32,10.42
		c-0.01,5.99-0.19,11.98,0.07,17.95c0.17,3.85-2.22,3.24-4.53,3.29c-2.29,0.06-4.21,0.19-4.05-3.21c0.26-5.47,0.07-10.97,0.06-16.46
		c-0.01-3.22-1.07-5.67-4.79-5.58c-3.49,0.08-5.05,2.36-5.14,5.54c-0.15,5.48-0.29,10.98,0,16.46c0.2,3.91-2.24,3.15-4.48,3.26
		c-2.36,0.12-4.16,0.1-4.01-3.24c0.25-5.31,0.03-10.64,0.07-15.96c0.02-3.11-0.6-5.92-4.33-6.02c-4-0.11-5.48,2.56-5.51,6.2
		c-0.04,5.15-0.26,10.32,0.06,15.46c0.22,3.58-1.61,3.64-4.22,3.59c-2.46-0.05-4.63,0.22-4.38-3.46
		C619.08,801.9,618.87,797.73,618.86,793.57z"/>
	<path class="st6" d="M237.36,676.37c-6.9-0.02-13.11-1.98-18.2-6.8c-8.91-8.44-8.62-20.28,0.62-28.31
		c9.51-8.25,26.57-8.09,35.93,0.33c9.42,8.48,9.1,20.96-0.74,28.95C250.16,674.45,244.35,676.37,237.36,676.37z M237.79,643.29
		c-3.59-0.25-6.99,0.49-10.06,2.27c-3.89,2.25-6.93,5.25-6.95,10.15c-0.02,4.89,2.83,8.08,6.85,10.18
		c6.81,3.56,13.75,3.56,20.46-0.29c8.3-4.78,8.53-14.06,0.55-19.32C245.37,644.13,241.75,643.02,237.79,643.29z"/>
	<path class="st5" d="M795.76,806.52c-10.69,6.43-20.83,1.47-22.15-10.41c-0.54-4.87,0.03-9.65,2.71-13.93
		c3.66-5.83,11.08-7.55,16.99-3.86c1.41,0.88,1.97,2.1,3.48-0.33c0.92-1.47,4.1-0.82,6.1-0.3c2.22,0.57,1.19,2.81,1.2,4.3
		c0.09,8.97,0.02,17.95,0.04,26.92c0.02,5.36-1.33,10.22-6.85,12.09c-6.77,2.3-13.73,2.97-19.88-1.94
		c-1.83-1.47-3.91-4.65-2.42-5.84c2.24-1.8,6.51-1.94,8.74,0.06c3.04,2.73,5.99,2.89,9.1,1.58
		C796.19,813.43,795.76,810.06,795.76,806.52z M795.77,793.51c0.16-6.16-2.26-9.55-6.83-9.56c-4.16-0.01-6.6,3.13-6.74,8.67
		c-0.15,6.01,2.45,9.67,6.86,9.64C793.19,802.24,795.62,799.07,795.77,793.51z"/>
	<path class="st7" d="M546.53,806.64c-11.07,6.43-21.25,0.84-21.96-11.66c-0.21-3.7,0.15-7.31,1.63-10.74
		c3.2-7.38,11.38-10.05,18.24-5.87c1.25,0.76,1.68,1.96,3.23-0.2c1.26-1.76,4.46-1.08,6.53-0.35c1.86,0.66,0.94,2.94,0.96,4.48
		c0.07,8.64,0.06,17.28,0.01,25.92c-0.03,5.39-0.93,10.61-6.74,12.7c-6.61,2.38-13.34,2.82-19.55-1.42c-1.38-0.94-2.29-2.38-2.85-4
		c-0.65-1.88-0.7-3.34,1.95-3.08c2.82,0.28,5.74-0.84,8.26,1.99c1.88,2.11,5.08,1.64,7.51,0.49
		C547.04,813.36,546.9,810.2,546.53,806.64z M533.26,792.35c0.02,2.52,0.08,4.34,0.89,6.03c1.08,2.26,2.79,3.65,5.34,3.87
		c2.56,0.22,4.75-0.74,5.86-2.94c2.05-4.04,2.22-8.37-0.01-12.38c-2.18-3.94-7.83-4.1-10.44-0.5
		C533.49,788.39,533.17,790.68,533.26,792.35z"/>
	<path class="st7" d="M671.16,793.3c0-3.83-0.1-7.66,0.04-11.48c0.05-1.47-1.02-3.84,1.35-4.15c2.13-0.28,5.2-1.43,6.42,0.72
		c1.3,2.3,1.79,0.76,2.72,0.22c4.6-2.66,9.17-3.02,13.37,0.67c1.38,1.21,2.03,1.41,3.54,0.09c3.76-3.3,8.17-3.61,12.57-1.45
		c4.33,2.13,5.12,6.18,5.08,10.57c-0.06,5.82-0.24,11.66,0.08,17.46c0.2,3.63-1.73,3.59-4.27,3.53c-2.38-0.06-4.65,0.39-4.45-3.38
		c0.27-5.31,0.02-10.64,0.08-15.97c0.03-3.15-0.61-5.82-4.4-5.91c-3.78-0.09-5.34,2.37-5.43,5.77c-0.14,5.32-0.28,10.66,0.01,15.96
		c0.2,3.6-1.72,3.53-4.27,3.54c-2.57,0.01-4.45,0.05-4.22-3.56c0.33-5.3,0.09-10.64,0.08-15.96c-0.01-3.15-0.85-5.76-4.62-5.76
		c-3.52,0-5.09,2.36-5.21,5.49c-0.21,5.48-0.32,10.99-0.03,16.46c0.21,3.89-2.19,3.2-4.46,3.3c-2.31,0.09-4.24,0.18-4.04-3.2
		C671.36,801.96,671.17,797.62,671.16,793.3z"/>
	<path class="st7" d="M963.49,743.28c-11.17,6.18-20.77,0.92-21.69-11.22c-0.29-3.84-0.03-7.65,1.55-11.25
		c3.31-7.51,11.24-10.04,18.16-5.62c1.51,0.96,1.58,0.89,3.06-0.44c3.05-2.74,7.35-0.15,7.36,3.99c0.01,8.65,0.04,17.29-0.03,25.94
		c-0.04,5.16-0.71,10.27-6.14,12.62c-6.21,2.69-12.65,2.97-18.73-0.45c-2.48-1.4-4.53-3.65-3.9-6.89c0.27-1.39,7.37-1.28,9.1,0.38
		c2.58,2.47,5.43,2.48,8.28,1.21C963.91,750.03,963.6,746.86,963.49,743.28z M950.22,729.99c0.08,0.62,0.14,2.13,0.49,3.57
		c0.81,3.24,2.8,5.31,6.31,5.28c3.52-0.04,5.46-2.13,6.15-5.43c0.3-1.45,0.44-2.97,0.41-4.45c-0.12-5.26-2.54-8.36-6.5-8.48
		C952.92,720.35,950.38,723.56,950.22,729.99z"/>
	<path class="st7" d="M827.54,787.95c-0.01-17.26,12.05-26.7,27.95-21.88c4.93,1.49,8.53,4.47,10.17,9.43
		c0.53,1.59,1.97,4.31-0.15,4.77c-2.5,0.54-6.33,2.18-7.98-1.43c-2.44-5.3-6.61-6.2-11.55-5.44c-5.06,0.79-7.71,4.22-8.74,9.05
		c-0.96,4.49-0.91,8.94,0.77,13.26c1.59,4.09,4.56,6.46,9.02,6.76c4.53,0.3,8.37-0.95,10.19-5.48c1.78-4.45,5.68-2.75,8.07-2.12
		c2.76,0.72,0.84,3.74,0.09,5.5c-3.22,7.56-9.57,10.16-17.29,10.3c-8.18,0.15-14.62-2.81-18.21-10.56
		C828.11,796.27,827.52,792.16,827.54,787.95z"/>
	<path class="st5" d="M427.94,787.64c0-5.81,0.14-11.62-0.06-17.42c-0.1-2.93,0.6-4.17,3.82-4.02c5.63,0.27,11.29-0.07,16.92,0.18
		c8.3,0.36,12.29,5.19,12.18,14.3c-0.11,8.56-4.45,13.15-12.58,13.47c-3.6,0.14-8.23-1.54-10.54,0.76
		c-2.32,2.31-0.84,6.95-0.7,10.54c0.13,3.34-1.03,4.27-4.22,4.09c-2.8-0.16-5.17,0.25-4.91-3.98
		C428.22,799.61,427.94,793.62,427.94,787.64z M442.58,773.84c-1.63,0.95-4.96-1.81-5.69,2.31c-1.6,8.96,0.14,10.92,8.98,10.12
		c5-0.45,7.11-3.32,5.92-8.17C450.55,773.1,446.43,774.07,442.58,773.84z"/>
	<path class="st7" d="M806.2,723.32c0.02,10.95,4.79,16.48,12.46,15.81c3.21-0.28,6.23-1.56,7.21-4.54c1.56-4.75,5.1-3.11,8.13-3.29
		c1.79-0.11,1.64,1.21,1.46,2.41c-0.44,2.87-1.65,5.41-3.51,7.59c-8.5,9.96-27.23,7.39-32.36-4.61c-3.41-7.97-3.33-16.27-0.06-24.29
		c3.04-7.46,10.25-11.16,19.64-10.68c7.97,0.4,13.49,3.94,15.55,10.28c0.53,1.63,2.32,4.37-0.44,4.94
		c-2.29,0.47-5.95,2.05-7.48-1.45c-2.22-5.08-6.14-6.16-10.99-5.55c-5.16,0.64-7.81,4.04-8.92,8.8
		C806.41,720.67,806.29,722.67,806.2,723.32z"/>
	<path class="st8" d="M454.8,245.98c0.79,0.69,1.53,1.33,2.27,1.98c17.64,15.66,35.28,31.31,52.91,46.97
		c3.68,3.27,2.77,8.35-1.71,10.13c-1.55,0.62-2.1-0.6-2.88-1.3c-18.14-16.09-36.27-32.19-54.34-48.36c-1.03-0.92-3.5-1.73-1.88-3.83
		C450.73,249.53,452.15,247.2,454.8,245.98z"/>
	<path class="st0" d="M701.72,252.5c-1.03,1.1-1.74,1.99-2.58,2.74c-18.23,16.24-36.53,32.42-54.68,48.75
		c-2.8,2.52-3.85,0.32-4.95-1.29c-1.21-1.77-5.11-2.91-1.33-6.21c14.88-13.02,29.58-26.24,44.35-39.38
		c3.35-2.98,6.69-5.98,10.12-8.87c1.01-0.85,1.84-3.07,3.55-1.68C698.21,248.21,699.79,250.38,701.72,252.5z"/>
	<path class="st0" d="M510.52,207.77c1.89-0.35,2.17,1.2,2.67,2.35c9.65,22.27,19.25,44.57,28.92,66.83
		c1.98,4.55-2.19,4.21-4.23,5.52c-2.34,1.5-3.62,0.85-4.76-1.85c-9.45-22.18-19.08-44.27-28.62-66.41
		C503.22,211.26,506.44,207.88,510.52,207.77z"/>
	<path class="st0" d="M614.97,283.34c-5.73,0.06-8.28-3.82-6.28-8.42c9.17-21.19,18.45-42.35,27.4-63.63c1.68-4,3.44-3.63,6.74-2.33
		c3.68,1.44,3.66,3.13,2.24,6.35c-9.43,21.45-18.65,42.98-28.01,64.46C616.47,281.12,616.52,283.21,614.97,283.34z"/>
	<path class="st0" d="M570.31,233.28c0-12.31,0.15-24.63-0.09-36.94c-0.07-3.86,1.62-4.29,4.77-4.3c3.16-0.01,4.78,0.45,4.76,4.29
		c-0.17,24.46-0.17,48.92-0.01,73.37c0.02,3.82-1.61,4.24-4.75,4.24c-3.15,0-4.83-0.42-4.76-4.24
		C570.45,257.58,570.31,245.43,570.31,233.28z"/>
	<path class="st9" d="M729.15,301.34c-0.07,0.63-1.29,0.93-2.29,1.44c-20.3,10.18-40.63,20.31-60.9,30.57
		c-3.98,2.02-3.9-1.5-4.99-3.31c-1.15-1.9-2.75-3.78,0.76-5.51c20.41-10.06,40.73-20.32,61.1-30.47
		C725.05,292.95,729.42,297.46,729.15,301.34z"/>
	<path class="st9" d="M425.11,293.13c1.31,0.62,2.37,1.09,3.4,1.61c19.46,9.72,38.89,19.51,58.42,29.1c3.27,1.61,4.05,2.95,2.13,6.3
		c-1.68,2.93-2.52,4.64-6.5,2.59c-19.49-10.04-39.17-19.68-58.76-29.52c-1.42-0.71-4.11-0.98-2.71-3.68
		C422.24,297.31,422.74,294.57,425.11,293.13z"/>
	<path class="st10" d="M186.06,689.54c-2.85,0-5.63-0.34-8.31-1.35c-9.97-3.74-13.5-14.19-7.83-23.18
		c7.26-11.51,26.09-12.49,34.46-1.78c8.02,10.26,1.04,23.9-13.35,26C189.39,689.47,187.72,689.44,186.06,689.54z M187.47,682.36
		c0.76-0.15,2.57-0.37,4.3-0.88c5.94-1.74,8.68-5.02,8.19-9.63c-0.49-4.66-4.98-8.32-10.65-8.62c-1.32-0.07-2.66-0.08-3.97,0.09
		c-5.9,0.74-10.76,5.72-10.53,10.71C175.05,679.11,179.61,682.39,187.47,682.36z"/>
	<path class="st5" d="M621.67,746.17c-3.48-0.98-7.25,2.27-9.95-2.3c-0.64-1.08-2.04,1.11-3.16,1.67
		c-4.11,2.07-8.33,2.64-12.39,0.33c-4-2.28-4.47-6.33-4.1-10.49c0.39-4.47,3.34-6.75,7.31-7.76c2.88-0.73,5.89-0.95,8.83-1.47
		c1.68-0.3,3.37-0.77,3.33-2.97c-0.04-2.34-1.72-3.12-3.66-3.28c-2.51-0.21-5.1-0.29-6.4,2.57c-0.35,0.77-0.62,1.63-1.61,1.63
		c-2.12,0.01-4.87,1.05-6.2-0.5c-1.46-1.7-0.06-4.15,1.18-5.95c3.02-4.37,11.34-5.99,18.46-3.71c5.2,1.67,6.58,4.25,6.86,11.19
		C620.45,731.98,618.86,738.97,621.67,746.17z M611.69,733.73c-0.22-1,0.66-2.59-1.72-2.55c-4.49,0.09-9.52,2.66-9.64,5.29
		c-0.13,2.97,1.63,4.05,4.36,4.06C608.75,740.55,611.57,737.86,611.69,733.73z"/>
	<path class="st5" d="M981.65,795.9c-2.16,0-4.34-0.14-6.48,0.05c-1.32,0.11-3.28-0.98-3.85,1.06c-0.47,1.68,0.49,3.28,1.7,4.47
		c2.3,2.25,4.99,2.44,7.78,0.96c0.71-0.38,1.18-1.17,1.86-1.62c2.7-1.79,6.27-2.1,8.19-0.24c1.5,1.45-1.13,4.08-2.7,5.72
		c-7.6,7.89-21.35,4.88-24.86-5.44c-1.54-4.53-1.65-9.15-0.36-13.75c2.28-8.14,9.27-12.16,17.79-10.34
		c7.44,1.59,12.57,9.28,11.51,16.97c-0.25,1.78-1.05,2.19-2.59,2.17c-2.66-0.04-5.32-0.01-7.98-0.01
		C981.65,795.89,981.65,795.89,981.65,795.9z M976.89,790.46c1.96-1.3,5.64,1.67,6.01-1.97c0.31-3.06-2.5-4.83-5.71-4.84
		c-3.22-0.01-5.91,1.77-5.73,4.85C971.66,791.99,975.18,789.16,976.89,790.46z"/>
	<path class="st5" d="M528.57,736.57c-2.03,6.69-6.4,9.78-12.47,10.5c-6.26,0.74-11.73-1.07-14.84-6.89
		c-3.6-6.74-3.62-13.79,0.09-20.53c3.39-6.15,11.73-8.41,18.91-5.48c5.79,2.36,10.07,10.45,8.92,16.42
		c-0.46,2.37-2.06,1.76-3.4,1.77c-4.82,0.07-9.65,0.21-14.46-0.03c-4.31-0.22-3.89,1.96-2.46,4.46c2.02,3.54,5.93,4.42,8.52,2.18
		C520.84,735.98,524.26,736.45,528.57,736.57z M513.54,726.93c2.06-1.23,5.72,1.59,6.13-1.95c0.37-3.19-2.62-4.69-5.78-4.69
		c-3,0-5.6,1.59-5.57,4.48C508.37,728.61,511.97,725.53,513.54,726.93z"/>
	<path class="st7" d="M763.65,746.19c-3.92-0.71-7.64,1.77-10.46-2.28c-0.73-1.05-1.98,1.12-3.09,1.67
		c-4.14,2.04-8.37,2.58-12.42,0.25c-3.78-2.17-4.39-6.05-4.11-10.05c0.33-4.67,3.27-7.16,7.5-8.18c3.06-0.73,6.23-1,9.34-1.57
		c1.59-0.29,2.83-1.1,2.74-2.98c-0.08-1.77-1.17-2.76-2.8-3c-2.84-0.42-5.75-0.76-7.33,2.51c-0.47,0.98-1,1.79-2.18,1.6
		c-2-0.33-4.76,1.25-5.86-1.04c-0.94-1.94,0.42-4.2,1.81-5.93c4.3-5.37,18.26-5.63,22.89-0.48c1.42,1.58,1.92,3.42,1.9,5.51
		c-0.04,3.99-0.02,7.99,0,11.98C761.58,738.13,761.09,742.13,763.65,746.19z M752.9,730.94c-2.57,0.63-5.14,1.19-7.67,1.91
		c-2.37,0.68-3.75,2.27-3.19,4.83c0.59,2.69,2.74,3.03,5.06,2.81C751.73,740.05,753.71,736.83,752.9,730.94z"/>
	<path class="st5" d="M1022.66,746.49c-3.77-1.28-7.22,1.59-9.77-2.34c-0.95-1.47-2.04,0.72-3.01,1.25
		c-4.07,2.21-8.29,2.82-12.35,0.46c-3.76-2.17-4.37-6.07-4.09-10.05c0.32-4.61,3.15-7.21,7.41-8.24c2.89-0.7,5.89-0.99,8.83-1.51
		c1.57-0.28,2.89-0.89,2.84-2.83c-0.05-1.99-1.14-3.06-3.05-3.28c-2.71-0.31-5.42-0.47-6.83,2.6c-0.45,0.99-0.94,1.78-2.15,1.6
		c-1.9-0.28-4.47,1.08-5.57-0.8c-1.12-1.92,0.2-4.2,1.49-5.97c3.01-4.13,10.91-5.69,17.58-3.57c5.31,1.69,6.66,4.19,6.93,11.09
		C1021.19,731.79,1019.59,738.79,1022.66,746.49z M1005.98,740.51c3.93,0.01,6.82-2.95,6.79-6.93c-0.01-1.38,0.1-2.51-2.07-2.31
		c-5.44,0.49-9.39,2.76-9.16,5.72C1001.75,739.69,1003.52,740.56,1005.98,740.51z"/>
	<path class="st5" d="M693.55,729.9c0.05,10.89-5.95,17.3-16.18,17.29c-10.04-0.01-16.03-6.3-16.09-16.88
		c-0.07-10.95,5.83-17.22,16.18-17.2C687.61,713.12,693.5,719.27,693.55,729.9z M684.72,730.53c-0.05-4.46-0.58-8.43-5.28-9.9
		c-3.16-0.99-5.92,0.01-7.85,2.73c-2.22,3.12-2.11,10.74,0.2,13.76c1.88,2.46,4.45,3.45,7.46,2.55
		C683.99,738.27,684.63,734.38,684.72,730.53z"/>
	<path class="st7" d="M936.93,736.55c-1.39,6.21-5.5,9.86-11.71,10.57c-6.67,0.77-12.29-1.96-14.9-7.59
		c-2.87-6.2-2.91-12.6-0.15-18.83c2.87-6.47,10.33-9.28,17.81-7.02c6.3,1.91,10.99,9.98,9.98,16.67c-0.35,2.31-1.74,2.02-3.18,2.03
		c-4.82,0.03-9.64,0.16-14.45-0.04c-3.32-0.14-3.69,1.21-2.56,3.83c1.51,3.51,6.34,5.29,9.07,2.59
		C930.05,735.6,933.39,736.62,936.93,736.55z M922.89,726.99c1.83-1.52,5.65,1.83,5.81-2.28c0.11-2.88-2.56-4.43-5.61-4.43
		c-3.09,0-5.59,1.66-5.54,4.53C917.63,728.61,921.24,725.52,922.89,726.99z"/>
	<path class="st7" d="M903.42,793.46c0.02,10.8-5.73,17-15.81,17.05c-10.16,0.05-16.15-6.11-16.22-16.69
		c-0.07-10.95,5.9-17.4,16.1-17.38C897.47,776.46,903.4,782.8,903.42,793.46z M894.74,793.87c0.12-6.51-2.71-10.24-7.63-10.05
		c-4.67,0.18-7.15,3.76-7.01,10.15c0.13,5.99,2.77,9.36,7.36,9.37C891.91,803.34,894.63,799.8,894.74,793.87z"/>
	<path class="st5" d="M613.67,809.38c-3.84-0.6-7.3,1.81-10.14-1.84c-1.2-1.54-2.05,0.73-3.01,1.24c-4.26,2.25-8.63,2.84-12.84,0.35
		c-3.55-2.1-4.15-5.84-3.94-9.65c0.23-4.1,2.33-6.98,6.29-8.06c3.35-0.91,6.84-1.35,10.27-1.98c1.6-0.3,2.91-0.91,2.9-2.8
		c-0.02-2-1.23-3.04-3.09-3.28c-2.52-0.34-5.31-0.61-6.64,2.08c-1.84,3.72-4.88,1.81-7.43,1.94c-1.33,0.07-1.2-1.29-1.02-2.29
		c0.38-2.2,1.36-4.06,3.05-5.58c4.71-4.23,16.37-4.15,21,0.13c1.87,1.72,2.51,3.81,2.49,6.26c-0.04,4.66,0.02,9.32-0.01,13.98
		C611.51,803,611.36,806.14,613.67,809.38z M603.35,796.67c-0.34-0.69,0.54-3.01-1.81-2c-3.36,1.44-8.69-0.03-9.46,5.43
		c-0.4,2.85,1.85,4,4.52,3.95C600.53,803.98,603.36,800.99,603.35,796.67z"/>
	<path class="st7" d="M1064.41,732.39c-1.99,0-4-0.15-5.97,0.05c-1.48,0.15-3.77-1.11-4.28,1.09c-0.51,2.21,0.77,4.33,2.74,5.47
		c2.28,1.32,4.79,1.32,7.05-0.27c0.67-0.47,1.07-1.4,1.77-1.72c2.52-1.14,6.06-1.51,7.57-0.13c1.69,1.54-0.87,4.07-2.36,5.72
		c-7.12,7.89-20.35,5.65-24.3-4.18c-2.25-5.6-2.21-11.4,0.03-17.01c2.8-7.02,10.54-10.16,18.33-7.65c6.25,2.02,11.01,10.4,9.77,16.8
		c-0.38,1.98-1.58,1.8-2.88,1.82C1069.39,732.41,1066.9,732.39,1064.41,732.39z M1060.09,726.9c1.74-1.19,5.24,1.47,5.44-2.03
		c0.16-2.87-2.41-4.54-5.46-4.58c-3.28-0.04-6.02,1.68-5.69,4.81C1054.7,728.25,1058.18,725.81,1060.09,726.9z"/>
	<path class="st5" d="M520.44,793.57c-0.01,10.67-5.83,16.88-15.84,16.93c-10.34,0.05-16.23-6.15-16.21-17.06
		c0.02-10.59,5.95-16.95,15.85-17.02C514.43,776.36,520.45,782.73,520.44,793.57z M511.73,793.81c-0.13-4.2-0.6-8.08-4.99-9.62
		c-2.84-0.99-5.61-0.47-7.67,2.03c-2.46,2.99-2.76,10.29-0.56,13.78c1.82,2.88,4.49,4,7.71,3.09
		C511,801.73,511.51,797.7,511.73,793.81z"/>
	<path class="st7" d="M840.39,729.7c0.1-10.59,6.09-16.72,16.21-16.59c9.76,0.13,15.58,6.7,15.43,17.43
		c-0.15,10.53-6.3,16.82-16.27,16.65C846.01,747.02,840.29,740.52,840.39,729.7z M849.03,729.7c-0.03,2.16,0.02,4.28,1.03,6.28
		c2.46,4.88,8.7,5.41,11.7,0.97c2.21-3.27,2.17-10.5-0.07-13.78c-2.47-3.62-7.88-3.89-10.68-0.46
		C849.36,724.73,848.92,727.15,849.03,729.7z"/>
	<path class="st11" d="M557.71,730.26c0-3.83-0.1-7.66,0.05-11.48c0.06-1.49-1.07-3.85,1.12-4.3c2.28-0.47,5.43-1.47,6.97,0.62
		c1.27,1.73,1.46,1.13,2.74,0.42c10.07-5.58,17.71-1.21,17.76,10.1c0.03,5.83-0.16,11.66,0.07,17.48c0.14,3.5-1.97,3.16-4.17,3.09
		c-2.2-0.08-4.79,0.79-4.62-3.17c0.24-5.48,0.07-10.98,0.04-16.48c-0.02-3.07-0.7-5.82-4.47-5.97c-3.93-0.15-6.5,1.91-6.71,5.83
		c-0.3,5.48-0.31,10.99-0.04,16.47c0.19,3.82-2.11,3.3-4.46,3.34c-2.46,0.04-4.64,0.27-4.36-3.46
		C557.95,738.6,557.71,734.42,557.71,730.26z"/>
	<path class="st11" d="M699.32,730.29c0-3.66-0.12-7.32,0.05-10.97c0.08-1.66-1.12-4.23,1.03-4.82c2.21-0.61,5.3-1.46,7.01,0.58
		c1.35,1.6,1.79,0.95,3.01,0.32c10.28-5.29,17.48-1.03,17.65,10.43c0.08,5.65-0.18,11.32,0.1,16.96c0.19,3.73-1.99,3.47-4.42,3.39
		c-2.25-0.07-4.73,0.68-4.53-3.23c0.27-5.31,0.04-10.64,0.07-15.96c0.01-3.23-0.45-6.12-4.5-6.46c-3.73-0.31-6.54,2.2-6.7,6.36
		c-0.21,5.31-0.28,10.65-0.04,15.96c0.17,3.76-2.1,3.33-4.48,3.35c-2.44,0.02-4.62,0.29-4.33-3.44
		C699.57,738.63,699.32,734.45,699.32,730.29z"/>
	<path class="st11" d="M739.57,793.18c0-3.66-0.09-7.31,0.04-10.97c0.05-1.53-0.94-3.9,1.02-4.41c2.24-0.59,5.52-1.58,6.92,0.62
		c1.5,2.37,2.07,0.87,3.2,0.23c9.23-5.22,17.12-0.74,17.32,9.88c0.1,5.65-0.2,11.31,0.11,16.94c0.2,3.54-1.3,4-4.32,4.08
		c-3.36,0.09-4.72-0.71-4.5-4.35c0.32-5.13,0.11-10.3,0.05-15.45c-0.04-3.09-0.83-5.68-4.66-5.73c-3.76-0.05-6.2,1.79-6.41,5.5
		c-0.31,5.47-0.36,10.97-0.08,16.44c0.19,3.62-1.75,3.6-4.29,3.52c-2.33-0.08-4.71,0.46-4.46-3.35
		C739.78,801.84,739.57,797.5,739.57,793.18z"/>
	<path class="st11" d="M445.48,730.04c0-3.82-0.11-7.64,0.05-11.45c0.06-1.45-1.11-3.76,1.23-4.18c2.17-0.39,5.29-1.27,6.55,0.5
		c1.3,1.82,1.5,1.53,3.08,0.63c9.9-5.62,17.51-1.26,17.71,10.09c0.1,5.81-0.14,11.63,0.08,17.43c0.15,3.96-2.48,3.03-4.65,3.12
		c-2.22,0.09-4.27,0.36-4.11-3.11c0.25-5.3,0.06-10.62,0.05-15.94c-0.01-3.39-0.52-6.59-4.9-6.57c-4.22,0.02-6.35,2.46-6.41,6.63
		c-0.07,5.15-0.3,10.31,0.04,15.43c0.28,4.17-2.29,3.4-4.75,3.59c-2.86,0.22-4.28-0.42-4.05-3.73
		C445.71,738.36,445.49,734.19,445.48,730.04z"/>
	<path class="st5" d="M1010.18,810.5c-4.85,0.13-9.42-0.66-12.43-4.91c-1.26-1.79-3.19-4.82-0.9-6.02c2.05-1.07,5.93-2.13,7.93,1.2
		c1.92,3.19,4.78,3.28,7.82,2.91c1.69-0.21,3.44-0.88,3.43-2.97c-0.01-1.8-1.54-2.34-3.08-2.74c-3.22-0.84-6.47-1.6-9.6-2.68
		c-3.91-1.34-6.57-3.78-6.45-8.4c0.12-4.51,2.28-7.54,6.32-9.29c5.99-2.59,14.67-1.13,18.12,3.11c1.45,1.78,3.41,4.83,1.67,6.01
		c-1.98,1.35-5.62,1.98-7.99-0.87c-0.42-0.51-0.69-1.19-1.2-1.56c-2.07-1.49-4.38-1.46-6.67-0.69c-1.15,0.39-2.11,1.33-1.71,2.66
		c0.71,2.4,3.09,2.21,4.92,2.77c2.38,0.73,4.84,1.21,7.23,1.91c4.19,1.22,7.16,3.57,7.18,8.36c0.02,4.84-2.16,8.22-6.74,10.03
		C1015.48,810.34,1012.85,810.5,1010.18,810.5z"/>
	<path class="st5" d="M909.16,793.38c0-3.82-0.1-7.65,0.05-11.47c0.06-1.48-1.04-3.8,1.23-4.23c2.15-0.4,5.31-1.33,6.51,0.54
		c1.29,2,1.67,1.41,3.12,0.64c10.14-5.44,17.38-1.11,17.44,10.38c0.03,5.49-0.18,10.98,0.08,16.45c0.15,3.2-1.01,4.06-3.98,3.81
		c-2.48-0.21-4.95,0.51-4.64-3.65c0.4-5.29,0.14-10.63,0.06-15.95c-0.05-3.02-0.7-5.76-4.56-5.85c-4-0.1-6.39,1.89-6.54,5.88
		c-0.2,5.31-0.34,10.65,0,15.95c0.27,4.15-2.27,3.46-4.75,3.61c-2.74,0.17-4.36-0.23-4.1-3.66
		C909.4,801.71,909.16,797.53,909.16,793.38z"/>
	<path class="st10" d="M143.02,671.43c3.75-0.29,7.32,0.48,10.62,2.18c4.51,2.33,7,6.12,6.96,11.24c-0.05,5.1-2.51,8.94-7.09,11.15
		c-5.97,2.88-12.25,2.9-18.51,1.16c-6.19-1.72-9.87-6.44-9.92-12.23c-0.06-5.98,3.31-10.34,9.59-12.44
		C137.38,671.6,140.16,671.22,143.02,671.43z M143.02,678.5c-6.67-0.04-10.84,2.34-10.92,6.22c-0.08,3.86,4.2,6.38,10.79,6.37
		c6.65-0.02,10.84-2.56,10.67-6.48C153.4,680.87,149.36,678.54,143.02,678.5z"/>
	<path class="st12" d="M945.51,794.71c0-2.49-0.01-4.97,0-7.46c0.01-1.85,0.26-3.76-2.59-3.73c-1.64,0.02-1.65-1.36-1.56-2.54
		c0.1-1.22-0.58-3.23,1.19-3.3c3.87-0.14,3.1-2.81,2.89-4.89c-0.37-3.58,1.38-4.02,4.38-4.07c3.15-0.05,4.64,0.73,4.23,4.15
		c-0.3,2.45-0.67,5.08,3.44,4.74c1.92-0.16,1.4,1.85,1.46,3.08c0.07,1.32,0.17,2.98-1.78,2.82c-3.35-0.26-3.23,1.81-3.19,4.11
		c0.07,3.65,0.01,7.3,0.02,10.94c0.01,2.3-0.49,4.73,3.26,4.73c2.67,0,1.45,2.43,1.67,3.86c0.27,1.79-0.5,2.57-2.43,2.85
		c-7.65,1.09-10.88-1.56-11-9.33C945.49,798.69,945.51,796.7,945.51,794.71z"/>
	<path class="st7" d="M490.81,746.48c-6.71-0.06-8.47-1.76-8.64-8.35c-0.11-4.32,0.01-8.64-0.06-12.96
		c-0.04-2.28,1.01-5.08-3.21-5.19c-1.6-0.04-1.49-5.48,0.18-5.55c3.89-0.17,3.17-2.76,2.98-4.87c-0.3-3.31,0.93-4.32,4.19-4.18
		c2.84,0.12,4.87,0.2,4.41,3.92c-0.32,2.62-0.62,5.38,3.71,5.14c1.81-0.1,1.03,2.07,1.15,3.25c0.11,1.13,0.13,2.67-1.54,2.49
		c-3.69-0.39-3.41,1.97-3.38,4.37c0.06,3.99,0.01,7.98,0.04,11.96c0.01,1.32-0.1,3.08,1.66,3.11c3.97,0.07,3.57,2.8,3.15,5.14
		C494.92,747.81,492.17,745.81,490.81,746.48z"/>
	<path class="st3" d="M104.77,703.12c-8.21-0.11-13.83-4.39-13.71-9.76c0.12-5.6,5.51-9.84,12.65-9.99
		c2.34-0.05,4.63,0.12,6.78,1.14c3.99,1.9,6.92,4.58,6.62,9.46c-0.3,4.95-3.68,7.12-7.89,8.36
		C107.5,702.83,105.66,702.97,104.77,703.12z"/>
	<path class="st5" d="M1031.03,794.36c0-2.49-0.03-4.99,0-7.48c0.02-1.75-0.01-3.02-2.41-3.47c-2.18-0.41-2.59-5.51-0.7-5.65
		c4.24-0.32,3.22-3.15,3.03-5.3c-0.31-3.45,1.45-3.66,4.15-3.7c2.97-0.05,4.78,0.41,4.34,3.99c-0.3,2.43-0.68,5.12,3.43,4.86
		c1.95-0.12,1.36,1.89,1.44,3.1c0.08,1.3,0.25,2.93-1.77,2.8c-3.37-0.22-3.19,1.96-3.16,4.22c0.05,3.49,0,6.98,0.02,10.47
		c0.01,2.45-0.56,5.04,3.46,5.14c2.55,0.07,1.19,2.58,1.43,4c0.26,1.49-0.34,2.31-2.1,2.63c-7.45,1.37-11.03-1.48-11.14-9.13
		C1031.01,798.69,1031.04,796.53,1031.03,794.36z"/>
	<path class="st11" d="M1028.86,731.27c0-2.33,0.03-4.65-0.01-6.98c-0.03-1.89,0.59-3.94-2.65-4.21c-1.73-0.14-2.13-5.44-0.6-5.55
		c4.03-0.28,3.47-2.94,3.2-5.26c-0.44-3.74,1.61-3.8,4.42-3.89c2.99-0.1,4.27,0.66,3.96,3.85c-0.24,2.53-0.81,5.44,3.62,5.2
		c1.83-0.1,0.97,2.09,1.13,3.26c0.2,1.47-0.16,2.75-2.05,2.54c-2.76-0.3-2.81,1.41-2.77,3.41c0.07,3.82,0.04,7.64,0.01,11.46
		c-0.02,2.37-0.31,4.61,3.22,4.92c2.88,0.26,1.31,2.87,1.55,4.43c0.3,1.98-1.3,1.86-2.63,2c-7.82,0.85-10.33-1.37-10.4-9.21
		C1028.85,735.26,1028.87,733.26,1028.86,731.27z"/>
	<path class="st5" d="M636.65,746.48c-6.46-0.11-8.26-1.86-8.4-8.08c-0.09-3.98,0.14-7.97-0.09-11.94
		c-0.15-2.52,1.74-6.05-3.35-6.69c-1.31-0.16-1.79-4.81,0.29-5.18c4.01-0.71,3.29-3.2,3.04-5.43c-0.43-3.89,1.85-3.66,4.53-3.77
		c2.87-0.12,4.36,0.46,4.03,3.76c-0.25,2.5-0.9,5.51,3.59,5.21c1.98-0.13,1.17,1.98,1.27,3.14c0.11,1.27,0.29,2.95-1.8,2.72
		c-3.45-0.37-3.16,1.88-3.13,4.11c0.05,3.48,0.03,6.97,0,10.45c-0.02,2.53-0.35,4.91,3.45,5.29c2.72,0.27,1.56,3,1.39,4.5
		C641.08,748.1,638.01,745.65,636.65,746.48z"/>
	<path class="st13" d="M437.02,724.43c0,6.16-0.19,12.32,0.06,18.47c0.16,3.83-2.2,3.35-4.52,3.27c-2.17-0.07-4.74,0.86-4.69-3.11
		c0.16-12.31,0.18-24.63-0.01-36.95c-0.07-4.31,2.74-3.13,5.03-3.34c2.72-0.24,4.35,0.27,4.2,3.68
		C436.83,712.44,437.02,718.44,437.02,724.43z"/>
	<path class="st14" d="M769.29,724.3c0-5.98,0.21-11.97-0.08-17.94c-0.17-3.5,1.57-3.76,4.21-3.61c2.27,0.13,4.67-0.59,4.62,3.25
		c-0.16,12.29-0.17,24.59,0.01,36.88c0.06,3.78-2.17,3.26-4.51,3.32c-2.5,0.07-4.51,0.2-4.33-3.47
		C769.5,736.61,769.29,730.45,769.29,724.3z"/>
	<path class="st13" d="M542.82,718.86c1.79-2.04,2.43-3.09,3.34-3.75c1.91-1.38,4.53-2.96,6.33-1.33c1.78,1.63,0.83,4.73,0.49,7.12
		c-0.25,1.8-2.11,1.16-3.33,1.23c-4.33,0.23-6.21,2.67-6.24,6.79c-0.04,4.65-0.24,9.31,0.05,13.93c0.24,3.8-2.08,3.33-4.43,3.34
		c-2.38,0.01-4.54,0.39-4.42-3.38c0.26-8.12,0.03-16.26,0.12-24.39c0.02-1.71-1.06-4.42,2.4-4.2
		C539.57,714.38,543.12,712.67,542.82,718.86z"/>
	<path class="st15" d="M475.53,781.03c1.41-1.18,2.44-2.29,3.69-3.03c1.7-1.02,3.94-2.27,5.52-0.8c1.63,1.51,0.53,4.1,0.62,6.21
		c0.12,2.8-2.14,1.87-3.59,2.04c-3.92,0.49-5.99,2.69-6.1,6.58c-0.13,4.48-0.34,8.98-0.06,13.45c0.22,3.43-1.08,4.2-4.22,4.08
		c-2.8-0.11-4.64-0.13-4.49-3.92c0.31-7.8,0.01-15.62,0.16-23.42c0.03-1.67-1.32-4.43,1.95-4.67
		C471.74,777.34,475.17,776.25,475.53,781.03z"/>
	<path class="st11" d="M570.51,781.53c1.73-1.51,2.66-2.44,3.7-3.21c1.65-1.23,3.89-2.41,5.53-1.37c2.22,1.43,0.78,4.27,0.94,6.48
		c0.21,2.84-2.16,1.81-3.58,2.02c-3.91,0.58-5.91,2.79-5.96,6.71c-0.06,4.33-0.29,8.67,0,12.97c0.24,3.58-1.07,4.49-4.5,4.44
		c-3.15-0.05-4.33-0.74-4.23-4.14c0.26-7.98,0.06-15.97,0.09-23.96c0.01-1.88-0.64-4.33,2.7-3.99
		C567.55,777.72,571.05,776.07,570.51,781.53z"/>
	<path class="st5" d="M902.37,724.31c0,6.14-0.21,12.28,0.08,18.41c0.17,3.62-1.77,3.46-4.28,3.51c-2.64,0.05-4.26-0.1-4.2-3.59
		c0.22-12.1,0.21-24.22,0-36.32c-0.06-3.56,1.73-3.53,4.28-3.57c2.67-0.04,4.36,0.19,4.2,3.65
		C902.17,712.35,902.37,718.34,902.37,724.31z"/>
	<path class="st5" d="M886.32,724.51c0,6.14-0.18,12.29,0.07,18.42c0.13,3.31-1.6,3.37-3.98,3.27c-2.28-0.1-4.57,0.6-4.51-3.26
		c0.2-12.28,0.17-24.56,0-36.84c-0.04-3.24,1.57-3.44,3.99-3.32c2.29,0.11,4.66-0.51,4.5,3.32
		C886.13,712.22,886.32,718.37,886.32,724.51z"/>
	<path class="st16" d="M732.19,793.47c0,4.31-0.18,8.63,0.05,12.93c0.22,4.04-2.55,2.97-4.66,3.07c-2.13,0.09-4.27,0.52-4.18-3.03
		c0.21-8.61,0.2-17.24,0.01-25.85c-0.08-3.44,1.92-3.23,4.14-3.11c2.14,0.11,4.87-0.9,4.68,3.08
		C732.03,784.84,732.19,789.16,732.19,793.47z"/>
	<path class="st13" d="M655.33,730.29c0,4.14-0.24,8.3,0.07,12.42c0.27,3.61-1.7,3.65-4.26,3.49c-2.22-0.14-4.66,0.67-4.56-3.22
		c0.22-8.61,0.19-17.23,0.03-25.84c-0.08-4.1,2.76-2.73,4.78-2.93c2.28-0.23,4.23-0.22,4.02,3.16
		C655.12,721.66,655.33,725.98,655.33,730.29z"/>
	<path class="st15" d="M979.26,730.27c0-3.81,0.13-7.63-0.04-11.43c-0.13-2.98,0.02-4.81,4.02-4.82c3.95,0,4.66,1.38,4.56,4.89
		c-0.23,7.94-0.23,15.9,0,23.85c0.11,3.61-1.87,3.44-4.36,3.47c-2.58,0.03-4.52,0.05-4.25-3.54
		C979.49,738.57,979.26,734.41,979.26,730.27z"/>
	<path class="st17" d="M983.71,710.51c-2.56-0.13-5.13-0.65-5.08-3.64c0.04-2.78,2.28-3.85,4.94-3.76c2.57,0.09,4.81,0.94,4.72,3.93
		C988.19,709.8,985.92,710.33,983.71,710.51z"/>
	<path class="st18" d="M728.15,774.05c-2.54-0.37-5.03-0.78-4.99-3.82c0.04-2.92,2.31-3.75,4.79-3.76c2.5-0.01,4.76,0.87,4.83,3.74
		C732.85,773.27,730.27,773.6,728.15,774.05z"/>
	<path class="st19" d="M650.77,710.51c-2.25-0.16-4.49-0.76-4.57-3.47c-0.09-2.94,2.14-3.85,4.7-3.91c2.59-0.06,4.88,0.9,4.89,3.74
		C655.8,709.82,653.32,710.41,650.77,710.51z"/>
	<path class="st1" d="M939.25,364.63c4.95-0.41,9.99,0.97,14.86-0.79c2.09,1.26,0.89,1.46-0.5,1.49c-4.86,0.1-9.72,0.15-14.58,0.22
		c0,0,0.1,0.1,0.1,0.1C939.17,365.31,939.21,364.97,939.25,364.63z"/>
	<path class="st20" d="M412.61,956.23c0,4.34-0.08,8.42,0.03,12.5c0.06,2.27-0.61,3.26-3.08,3.28c-2.64,0.01-2.93-1.31-2.92-3.42
		c0.05-13.47,0.01-26.93,0.05-40.4c0-1.05-0.48-2.54,1.16-2.87c1.45-0.29,3.92-0.71,4.21,0.33c1.15,4.16,2.81,1.13,4.04,0.45
		c8.73-4.79,18.99-0.49,21.17,9.14c0.96,4.23,0.92,8.62-0.19,12.86C434.19,959.15,424.8,962.41,412.61,956.23z M412.43,942.32
		c0.05,0,0.1,0.01,0.15,0.01c0,0.99-0.07,1.99,0.01,2.98c0.45,5.12,3.31,8.46,7.65,9.02c5.29,0.68,8.81-1.56,10.6-6.82
		c1.16-3.39,1.12-6.87,0.37-10.3c-1.19-5.36-4.46-8.12-9.2-8.09c-4.64,0.03-7.97,2.98-9.1,8.26
		C412.56,939,412.58,940.68,412.43,942.32z"/>
	<path class="st21" d="M643.6,927.69c0-4.14,0.04-8.08-0.02-12.02c-0.03-1.98-0.04-3.53,2.76-3.51c2.51,0.01,3.03,1.01,3.01,3.26
		c-0.08,13.28-0.03,26.57-0.06,39.85c0,1.2,0.55,2.94-1.48,3.07c-1.33,0.09-3.14,0.86-3.64-1.38c-0.63-2.81-1.65-0.79-2.52-0.21
		c-8.78,5.85-18.63,2.4-21.71-7.72c-1.33-4.38-1.29-8.9-0.04-13.28C623.1,924.52,631.97,921.43,643.6,927.69z M643.82,940.94
		c-0.03-0.42-0.05-1.76-0.26-3.07c-0.8-5.05-3.96-8.29-8.28-8.57c-4.53-0.29-8.41,2.72-9.53,7.78c-0.91,4.1-0.9,8.26,0.84,12.23
		c1.48,3.38,4.06,5.14,7.77,5.23c3.75,0.1,6.28-1.71,7.95-4.96C643.57,947.15,643.81,944.52,643.82,940.94z"/>
	<path class="st21" d="M678.94,954.81c-3.84,3.07-7.78,4.98-12.57,4.71c-5.39-0.3-9.28-3.29-10.07-7.96
		c-0.95-5.62,1.44-9.83,7.12-11.45c3.65-1.04,7.51-1.34,11.29-1.87c2.09-0.29,4.05-0.63,4.26-3.26c0.21-2.65-0.95-4.44-3.45-5.43
		c-4.65-1.85-9.21-0.54-11.78,4.05c-1.31,2.35-3.16,1.86-4.64,1.43c-2.07-0.6-0.88-2.56-0.57-3.84c0.72-2.99,2.93-4.8,5.68-5.86
		c4.85-1.88,9.79-1.76,14.66-0.05c3.87,1.36,5.9,4.07,5.86,8.31c-0.06,5.66-0.02,11.32,0.04,16.98c0.02,1.4-0.47,3.37,1.55,3.69
		c2.07,0.32,2.46,1.42,2.17,3.08c-0.36,2.14-2.15,1.61-3.56,1.78C681.73,959.51,680.22,957.36,678.94,954.81z M678.84,945.55
		c-0.49-1.07,1.18-3.66-1.98-3.18c-3.6,0.55-7.23,1.09-10.74,2.03c-2.65,0.71-4.12,2.75-3.82,5.67c0.28,2.77,2.21,3.94,4.65,4.48
		C672.84,955.84,678.67,951.48,678.84,945.55z"/>
	<path class="st22" d="M541.55,940.91c0.05,13.3-8.1,20.84-19.93,18.37c-1.44-0.3-2.91-0.79-4.19-1.51
		c-6.98-3.91-9.73-14.96-6.08-24.11c3.02-7.58,10.45-11.28,18.74-9.32C537.4,926.07,541.52,932.02,541.55,940.91z M535.43,941.17
		c0.02-8.5-3.86-12.85-10.84-12.16c-4.84,0.48-7.73,4.07-8.61,10.67c-1.12,8.46,2.69,14.71,9.16,15.04
		C531.7,955.06,535.41,950.17,535.43,941.17z"/>
	<path class="st22" d="M756.27,941.07c-0.03,13.26-8.31,20.77-20.12,18.21c-0.16-0.04-0.33-0.06-0.49-0.1
		c-6.2-1.53-10.43-7.03-11.06-14.4c-0.79-9.1,2.68-16.51,9.11-19.48c6.19-2.85,13.77-1.45,18.41,3.36
		C755.49,932.15,756.32,936.46,756.27,941.07z M750.16,941.03c0.18-2.51-0.27-5.13-1.56-7.52c-3.15-5.86-11.91-6.47-15.41-0.86
		c-3.5,5.6-3.68,11.65-0.72,17.62c1.67,3.36,4.72,4.54,8.3,4.45c3.65-0.1,6.37-1.7,7.76-5.22
		C749.57,946.84,750.31,944.13,750.16,941.03z"/>
	<path class="st23" d="M612.6,945.05c0,3.33-0.05,6.65,0.02,9.98c0.04,1.98,0.01,3.49-2.76,3.5c-2.72,0.01-3.37-1.04-3.3-3.54
		c0.14-5.65,0.08-11.31,0.03-16.96c-0.05-5.85-1.81-8.36-5.98-8.72c-5.1-0.44-9.54,3.01-9.91,8.33c-0.39,5.63-0.19,11.3-0.23,16.95
		c-0.01,1.96,0.46,3.94-2.79,3.95c-2.97,0-3.12-1.45-3.1-3.72c0.08-8.98,0.02-17.96,0.05-26.95c0-1.05-0.49-2.56,1.18-2.82
		c1.43-0.23,3.88-0.72,4.11,0.61c0.8,4.53,2.47,1.34,3.69,0.59c9.54-5.78,18.71-0.84,18.97,10.31c0.07,2.83,0.01,5.66,0.01,8.48
		C612.59,945.05,612.59,945.05,612.6,945.05z"/>
	<path class="st22" d="M763.3,941.33c0-4.49-0.02-8.98,0.02-13.46c0.01-1.24-0.41-2.92,1.67-2.88c1.36,0.02,3.39-0.87,3.8,1.18
		c0.54,2.71,1.4,1.79,2.8,0.74c4.54-3.4,9.61-3.85,14.58-1.44c4.97,2.4,5.14,7.29,5.11,12.08c-0.04,5.98-0.07,11.97,0.02,17.95
		c0.03,2.02-0.46,3.01-2.73,3.01c-2.3,0.01-3.25-0.63-3.19-3.1c0.15-5.81,0.11-11.63,0.02-17.45c-0.1-6.08-2.04-8.54-6.59-8.66
		c-4.97-0.13-9.08,3.23-9.41,8.35c-0.36,5.63-0.17,11.29-0.17,16.94c0,2.04,0.28,3.9-2.88,3.93c-3.01,0.03-3.1-1.52-3.06-3.74
		C763.36,950.31,763.3,945.82,763.3,941.33z"/>
	<path class="st24" d="M575.64,942.08c0,4.49,0.03,8.98-0.02,13.47c-0.01,1.06,0.44,2.59-1.26,2.75c-1.37,0.13-3.49,0.93-3.9-0.95
		c-0.8-3.65-1.98-1.17-3.08-0.42c-4.37,2.99-9.07,3.27-13.74,1.15c-4.67-2.12-5.17-6.5-5.14-11.01c0.03-6.32,0.08-12.64-0.03-18.96
		c-0.04-2.23,0.47-3.28,3-3.28c2.57,0,3.01,1.13,2.97,3.33c-0.1,5.82-0.05,11.64-0.02,17.46c0.02,3.98,0.22,7.91,5.44,8.56
		c4.83,0.6,8.79-2.16,9.38-7.51c0.67-6.09,0.42-12.28,0.54-18.43c0.03-1.71-0.14-3.32,2.41-3.39c2.43-0.07,3.64,0.45,3.51,3.25
		C575.49,932.76,575.64,937.42,575.64,942.08z"/>
	<path class="st25" d="M377.37,942.63c0.21,1.64,0.19,3.35,0.67,4.9c1.08,3.5,2.94,6.31,7.07,6.76c4.29,0.47,7.75-0.88,9.27-5
		c1.1-2.97,3.2-3.69,5.37-2.6c2.4,1.21,0.76,3.51-0.01,5.2c-4.29,9.43-19.18,10.43-25.56,1.76c-5.5-7.46-4.01-20.41,3.03-26.37
		c6.49-5.5,18.23-4.25,22.11,2.47c1.09,1.88,3.05,4.56,0.55,6.14c-2.27,1.44-4.23,0.01-5.7-2.81c-2.93-5.61-10.87-5.45-14.44-0.03
		C377.82,935.95,377.37,939.22,377.37,942.63z"/>
	<path class="st25" d="M442.37,943.22c0.06-13.49,7.36-20.44,19.02-19.02c5,0.61,8.78,3.02,10.31,8.08c0.38,1.25,1.8,3.08-0.47,3.73
		c-1.55,0.44-3.86,1.2-4.77-1.14c-1.89-4.89-5.51-6.64-10.31-5.48c-5.15,1.24-6.65,5.59-7.33,10.22c-0.41,2.81-0.35,5.63,0.63,8.38
		c1.26,3.55,3.29,6.07,7.4,6.36c4.1,0.29,7.38-1.01,8.77-4.99c1.13-3.26,3.63-3.81,5.81-2.63c2.27,1.24,0.25,3.63-0.45,5.23
		c-2.5,5.74-8.64,8.31-16.52,7.22c-5.7-0.79-10.68-5.81-11.76-12.02C442.41,945.52,442.42,943.84,442.37,943.22z"/>
	<path class="st26" d="M495.81,943.9c0-3.16,0.02-6.32-0.01-9.48c-0.02-2.37,0.81-5.27-3.36-4.97c-1.22,0.09-1.39-1.18-1.4-2.23
		c-0.01-1.09,0.23-2.21,1.51-2.1c4.35,0.4,3.14-2.76,3.26-4.98c0.33-6.09,3.56-8.97,9.24-8.32c1.6,0.18,2.48,0.63,2.37,2.38
		c-0.08,1.33,0.17,2.86-1.84,2.82c-3.65-0.07-3.67,2.42-3.91,5.06c-0.29,3.14,1.63,3.06,3.74,3c1.47-0.04,2.02,0.73,2,2.17
		c-0.02,1.37-0.43,2.42-1.94,2.24c-4.28-0.52-3.82,2.31-3.8,5.03c0.05,6.82,0,13.64,0.03,20.46c0.01,1.9,0.21,3.56-2.67,3.57
		c-2.82,0.01-3.32-1.27-3.24-3.66C495.9,951.22,495.81,947.56,495.81,943.9z"/>
	<path class="st27" d="M694.62,942.07c0-2.66,0.01-5.32,0-7.98c-0.01-2.27,0.52-4.46-3.17-4.88c-2.13-0.24-1.8-3.85-0.36-3.93
		c4.38-0.26,3.45-3.04,3.53-5.55c0.07-2.07-0.62-4.36,2.97-4.4c3.62-0.04,2.95,2.25,2.96,4.32c0.02,2.77-0.69,5.92,3.99,5.35
		c1.61-0.2,1.57,1.34,1.56,2.53c0,1.5-0.89,2.13-2.24,1.98c-3.21-0.35-3.39,1.56-3.34,4c0.11,4.82,0.06,9.64,0.03,14.46
		c-0.02,3.05-0.46,6.26,4.24,6.12c1.34-0.04,1.29,1.23,1.32,2.24c0.04,1.31-0.44,2.13-1.79,2.58c-4.81,1.57-9.22-1.2-9.6-6.37
		c-0.25-3.47-0.05-6.98-0.05-10.47C694.65,942.07,694.63,942.07,694.62,942.07z"/>
	<path class="st28" d="M718.17,941.43c0,4.65-0.09,9.31,0.04,13.96c0.07,2.4-0.88,3.18-3.21,3.18c-2.24,0-3.35-0.59-3.33-3.07
		c0.09-9.14,0.1-18.28,0-27.42c-0.03-2.42,0.89-3.16,3.22-3.13c2.2,0.03,3.4,0.48,3.32,3.03
		C718.06,932.46,718.17,936.95,718.17,941.43z"/>
	<path class="st25" d="M365.84,941.81c0,4.31-0.07,8.61,0.03,12.92c0.06,2.32-0.35,3.75-3.19,3.7c-2.53-0.04-3-1.2-2.98-3.37
		c0.07-8.94,0.09-17.89-0.01-26.83c-0.03-2.4,0.84-3.11,3.17-3.14c2.53-0.03,3.06,1.11,3.01,3.31
		C365.77,932.86,365.84,937.34,365.84,941.81z"/>
	<path class="st29" d="M482.38,958.66c-2.35-0.2-4.82-0.72-4.79-3.7c0.02-2.84,2.24-3.75,4.81-3.76c2.57-0.01,4.8,0.95,4.9,3.71
		C487.41,957.91,484.88,958.42,482.38,958.66z"/>
	<path class="st30" d="M714.98,919.29c-2.43-0.16-4.87-0.66-4.83-3.74c0.04-2.63,2.06-3.57,4.47-3.67c2.58-0.1,4.93,0.66,5.13,3.51
		C719.97,918.42,717.55,919.11,714.98,919.29z"/>
	<path class="st31" d="M363.07,919.29c-2.64-0.12-5.15-0.58-5.11-3.62c0.03-2.95,2.44-3.63,4.96-3.64c2.36-0.01,4.48,0.76,4.64,3.41
		C367.74,918.49,365.45,919.18,363.07,919.29z"/>
</g>
</svg>
